<svg xmlns="http://www.w3.org/2000/svg" version="1.1" viewBox="-5.0 -10.0 110.0 135.0">
 <g>
  <path d="m50 17.188c-18.125 0-32.812 14.688-32.812 32.812s14.688 32.812 32.812 32.812 32.812-14.688 32.812-32.812-14.688-32.812-32.812-32.812zm0 62.5c-16.406 0-29.688-13.281-29.688-29.688s13.281-29.688 29.688-29.688 29.688 13.281 29.688 29.688-13.281 29.688-29.688 29.688z"/>
  <path d="m90.781 43.438c-1.4062-1.0938-2.9688-2.5-3.2812-3.5938s0.3125-2.9688 1.0938-4.8438c0.9375-2.6562 2.0312-5.4688 0.625-7.6562-1.25-2.3438-4.2188-2.8125-7.0312-3.2812-1.875-0.3125-3.9062-0.625-4.6875-1.5625-0.78125-0.78125-1.25-2.8125-1.5625-4.6875-0.46875-2.8125-1.0938-5.7812-3.2812-7.0312s-5-0.3125-7.6562 0.625c-1.875 0.625-3.75 1.4062-4.8438 1.0938s-2.3438-1.875-3.5938-3.2812c-1.875-2.1875-3.9062-4.5312-6.5625-4.5312s-4.6875 2.3438-6.5625 4.5312c-1.0938 1.4062-2.5 2.9688-3.5938 3.2812s-2.9688-0.3125-4.8438-1.0938c-2.6562-0.9375-5.4688-2.0312-7.6562-0.625-2.3438 1.25-2.8125 4.2188-3.2812 7.0312-0.3125 1.875-0.625 3.9062-1.5625 4.6875-0.78125 0.78125-2.8125 1.0938-4.6875 1.5625-2.8125 0.46875-5.7812 1.0938-7.0312 3.2812s-0.3125 5 0.625 7.6562c0.625 1.875 1.4062 3.75 1.0938 4.8438s-1.875 2.3438-3.2812 3.5938c-2.1875 1.875-4.5312 3.9062-4.5312 6.5625s2.3438 4.6875 4.5312 6.5625c1.4062 1.0938 2.9688 2.5 3.2812 3.5938s-0.3125 2.9688-1.0938 4.8438c-0.9375 2.6562-2.0312 5.4688-0.625 7.6562 1.25 2.3438 4.2188 2.8125 7.0312 3.2812 1.875 0.3125 3.9062 0.625 4.6875 1.5625 0.78125 0.78125 1.25 2.8125 1.5625 4.6875 0.46875 2.8125 1.0938 5.7812 3.2812 7.0312s5 0.3125 7.6562-0.625c1.875-0.625 3.75-1.4062 4.8438-1.0938s2.3438 1.875 3.5938 3.2812c1.875 2.1875 3.9062 4.5312 6.5625 4.5312s4.6875-2.3438 6.5625-4.5312c1.0938-1.4062 2.5-2.9688 3.5938-3.2812s2.9688 0.3125 4.8438 1.0938c2.6562 0.9375 5.4688 2.0312 7.6562 0.625 2.3438-1.25 2.8125-4.2188 3.2812-7.0312 0.3125-1.875 0.625-3.9062 1.5625-4.6875 0.78125-0.78125 2.8125-1.0938 4.6875-1.5625 2.8125-0.46875 5.7812-1.0938 7.0312-3.2812s0.3125-5-0.625-7.6562c-0.625-1.875-1.4062-3.75-1.0938-4.8438s1.875-2.3438 3.2812-3.5938c2.1875-1.875 4.5312-3.9062 4.5312-6.5625s-2.3438-4.6875-4.5312-6.5625zm-2.0312 10.625c-1.875 1.5625-3.75 3.125-4.2188 5.1562-0.625 2.0312 0.3125 4.5312 1.0938 6.7188 0.625 1.875 1.5625 4.0625 0.9375 5.1562s-2.9688 1.4062-5 1.7188c-2.3438 0.46875-4.8438 0.78125-6.4062 2.3438s-1.875 3.9062-2.3438 6.4062c-0.3125 2.0312-0.78125 4.375-1.7188 5s-3.125-0.15625-5.1562-0.9375c-2.3438-0.78125-4.6875-1.7188-6.7188-1.0938-2.0312 0.46875-3.5938 2.5-5.1562 4.2188-1.4062 1.5625-2.8125 3.4375-4.0625 3.4375s-2.8125-1.875-4.0625-3.4375c-1.5625-1.875-3.125-3.75-5.1562-4.2188-0.46875-0.15625-0.9375-0.15625-1.4062-0.15625-1.7188 0-3.5938 0.625-5.3125 1.25-1.875 0.625-4.0625 1.5625-5.1562 0.9375s-1.4062-2.9688-1.7188-5c-0.46875-2.3438-0.78125-4.8438-2.3438-6.4062s-3.9062-1.875-6.4062-2.3438c-2.0312-0.3125-4.375-0.78125-5-1.7188s0.15625-3.125 0.9375-5.1562c0.78125-2.3438 1.7188-4.6875 1.0938-6.7188-0.46875-2.0312-2.5-3.5938-4.2188-5.1562-1.5625-1.25-3.4375-2.8125-3.4375-4.0625s1.875-2.8125 3.4375-4.0625c1.875-1.5625 3.75-3.125 4.2188-5.1562 0.625-2.0312-0.3125-4.5312-1.0938-6.7188-0.625-1.875-1.5625-4.0625-0.9375-5.1562s2.9688-1.4062 5-1.7188c2.3438-0.46875 4.8438-0.78125 6.4062-2.3438s1.875-3.9062 2.3438-6.4062c0.3125-2.0312 0.78125-4.375 1.7188-5s3.125 0.15625 5.1562 0.9375c2.3438 0.78125 4.6875 1.7188 6.7188 1.0938 2.0312-0.46875 3.5938-2.5 5.1562-4.2188 1.25-1.5625 2.8125-3.4375 4.0625-3.4375s2.8125 1.875 4.0625 3.4375c1.5625 1.875 3.125 3.75 5.1562 4.2188 2.0312 0.625 4.5312-0.3125 6.7188-1.0938 1.875-0.625 4.0625-1.5625 5.1562-0.9375s1.4062 2.9688 1.7188 5c0.46875 2.3438 0.78125 4.8438 2.3438 6.4062s3.9062 1.875 6.4062 2.3438c2.0312 0.3125 4.375 0.78125 5 1.7188s-0.15625 3.125-0.9375 5.1562c-0.78125 2.3438-1.7188 4.6875-1.0938 6.7188 0.46875 2.0312 2.5 3.5938 4.2188 5.1562 1.5625 1.4062 3.4375 2.8125 3.4375 4.0625s-1.875 2.8125-3.4375 4.0625z"/>
 </g>
</svg>